<svg width="23" height="24" viewBox="0 0 23 24" fill="none" xmlns="http://www.w3.org/2000/svg">
<path fill-rule="evenodd" clip-rule="evenodd" d="M15.8117 0C16.2788 0 16.6579 0.375068 16.6579 0.837205L16.6584 1.78359C18.3057 1.89534 19.6738 2.45362 20.6421 3.41368C21.6992 4.46409 22.2554 5.97441 22.2498 7.78612V17.9699C22.2498 21.6893 19.8625 24 16.021 24H6.47867C2.63715 24 0.249878 21.6569 0.249878 17.8851V7.78389C0.249878 4.27566 2.37886 2.02374 5.85104 1.78398L5.85173 0.837205C5.85173 0.375068 6.23081 0 6.69788 0C7.16496 0 7.54403 0.375068 7.54403 0.837205L7.5437 1.7626H14.965L14.9656 0.837205C14.9656 0.375068 15.3446 0 15.8117 0ZM20.5575 9.9393H1.94218V17.8851C1.94218 20.7494 3.55325 22.3256 6.47867 22.3256H16.021C18.9464 22.3256 20.5575 20.7784 20.5575 17.9699L20.5575 9.9393ZM16.2717 16.9632C16.7388 16.9632 17.1178 17.3383 17.1178 17.8004C17.1178 18.2626 16.7388 18.6376 16.2717 18.6376C15.8046 18.6376 15.421 18.2626 15.421 17.8004C15.421 17.3383 15.7945 16.9632 16.2615 16.9632H16.2717ZM11.2653 16.9632C11.7324 16.9632 12.1114 17.3383 12.1114 17.8004C12.1114 18.2626 11.7324 18.6376 11.2653 18.6376C10.7982 18.6376 10.4146 18.2626 10.4146 17.8004C10.4146 17.3383 10.7881 16.9632 11.2551 16.9632H11.2653ZM6.24841 16.9632C6.71548 16.9632 7.09456 17.3383 7.09456 17.8004C7.09456 18.2626 6.71548 18.6376 6.24841 18.6376C5.78133 18.6376 5.39662 18.2626 5.39662 17.8004C5.39662 17.3383 5.77118 16.9632 6.23825 16.9632H6.24841ZM16.2717 12.6246C16.7388 12.6246 17.1178 12.9997 17.1178 13.4618C17.1178 13.924 16.7388 14.299 16.2717 14.299C15.8046 14.299 15.421 13.924 15.421 13.4618C15.421 12.9997 15.7945 12.6246 16.2615 12.6246H16.2717ZM11.2653 12.6246C11.7324 12.6246 12.1114 12.9997 12.1114 13.4618C12.1114 13.924 11.7324 14.299 11.2653 14.299C10.7982 14.299 10.4146 13.924 10.4146 13.4618C10.4146 12.9997 10.7881 12.6246 11.2551 12.6246H11.2653ZM6.24841 12.6246C6.71548 12.6246 7.09456 12.9997 7.09456 13.4618C7.09456 13.924 6.71548 14.299 6.24841 14.299C5.78133 14.299 5.39662 13.924 5.39662 13.4618C5.39662 12.9997 5.77118 12.6246 6.23825 12.6246H6.24841ZM14.965 3.43701H7.5437L7.54403 4.51086C7.54403 4.973 7.16496 5.34807 6.69788 5.34807C6.23081 5.34807 5.85173 4.973 5.85173 4.51086L5.85113 3.46235C3.3237 3.67242 1.94218 5.18828 1.94218 7.78389V8.26489H20.5575L20.5575 7.78389C20.562 6.40529 20.1874 5.33367 19.444 4.59693C18.7913 3.94927 17.8372 3.56248 16.6588 3.46288L16.6579 4.51086C16.6579 4.973 16.2788 5.34807 15.8117 5.34807C15.3446 5.34807 14.9656 4.973 14.9656 4.51086L14.965 3.43701Z" fill="#878787" stroke="#878787" stroke-width="0.2"/>
</svg>
