<svg width="24" height="24" viewBox="0 0 24 24" fill="none" xmlns="http://www.w3.org/2000/svg">
<path fill-rule="evenodd" clip-rule="evenodd" d="M13.353 15.6857C14.6685 15.6857 15.7394 16.6991 15.7394 17.9449V21.1489C15.7394 21.4166 15.9645 21.6311 16.2529 21.6374H18.3356C19.9768 21.6374 21.311 20.3812 21.311 18.8376V9.75059C21.3033 9.21937 21.0378 8.7194 20.5821 8.38712L13.3781 2.91036C12.4111 2.18019 11.0583 2.18019 10.088 2.91244L2.93313 8.38504C2.46 8.72773 2.19448 9.2277 2.18901 9.76829V18.8376C2.18901 20.3812 3.52318 21.6374 5.16439 21.6374H7.26671C7.56283 21.6374 7.80322 21.4135 7.80322 21.1385C7.80322 21.0781 7.81087 21.0176 7.82398 20.9604V17.9449C7.82398 16.7064 8.88825 15.694 10.194 15.6857H13.353ZM18.3356 23.1998H16.2333C15.0291 23.1727 14.1003 22.2717 14.1003 21.1489V17.9449C14.1003 17.5605 13.7649 17.2481 13.353 17.2481H10.1995C9.79627 17.2502 9.463 17.5637 9.463 17.9449V21.1385C9.463 21.2166 9.45208 21.2916 9.42913 21.3624C9.31112 22.3936 8.38671 23.1998 7.26671 23.1998H5.16439C2.61953 23.1998 0.549988 21.2426 0.549988 18.8376V9.761C0.560915 8.72565 1.06136 7.77778 1.92568 7.15386L9.06636 1.69064C10.6387 0.503208 12.8296 0.503208 14.3987 1.68856L21.5907 7.15699C22.4353 7.77049 22.9358 8.71627 22.95 9.73913V18.8376C22.95 21.2426 20.8804 23.1998 18.3356 23.1998Z" fill="#878787" stroke="#878787" stroke-width="0.3"/>
</svg>
