<svg width="23" height="24" viewBox="0 0 23 24" fill="none" xmlns="http://www.w3.org/2000/svg">
    <path fill-rule="evenodd" clip-rule="evenodd"
          d="M8.97432 2.51724C7.06293 2.51724 5.22983 3.27654 3.87828 4.62809C2.52672 5.97965 1.76742 7.81275 1.76742 9.72414C1.76742 10.6706 1.95384 11.6077 2.31602 12.4821C2.6782 13.3565 3.20905 14.151 3.87828 14.8202C4.5475 15.4894 5.34198 16.0203 6.21636 16.3824C7.09074 16.7446 8.0279 16.931 8.97432 16.931C9.92074 16.931 10.8579 16.7446 11.7323 16.3824C12.6067 16.0203 13.4011 15.4894 14.0704 14.8202C14.7396 14.151 15.2704 13.3565 15.6326 12.4821C15.9948 11.6077 16.1812 10.6706 16.1812 9.72414C16.1812 7.81275 15.4219 5.97965 14.0704 4.62809C12.7188 3.27654 10.8857 2.51724 8.97432 2.51724ZM2.80542 3.55524C4.44152 1.91915 6.66054 1 8.97432 1C11.2881 1 13.5071 1.91915 15.1432 3.55524C16.7793 5.19133 17.6985 7.41035 17.6985 9.72414C17.6985 10.8698 17.4728 12.0043 17.0344 13.0627C16.693 13.8868 16.2279 14.6523 15.6563 15.3332L22.028 21.705C22.3242 22.0012 22.3242 22.4815 22.028 22.7778C21.7317 23.0741 21.2514 23.0741 20.9551 22.7778L14.5834 16.4061C13.9025 16.9777 13.137 17.4428 12.3129 17.7842C11.2544 18.2226 10.12 18.4483 8.97432 18.4483C7.82865 18.4483 6.6942 18.2226 5.63574 17.7842C4.57728 17.3458 3.61553 16.7031 2.80542 15.893C1.99531 15.0829 1.3527 14.1212 0.914269 13.0627C0.47584 12.0043 0.250183 10.8698 0.250183 9.72414C0.250183 7.41035 1.16933 5.19133 2.80542 3.55524Z"
          fill="#878787" stroke="#878787" stroke-width="0.5" stroke-linecap="round" stroke-linejoin="round"/>
</svg>
